<?xml version="1.0" standalone="no"?>
<!DOCTYPE svg PUBLIC "-//W3C//DTD SVG 20010904//EN"
 "http://www.w3.org/TR/2001/REC-SVG-20010904/DTD/svg10.dtd">
<svg version="1.0" xmlns="http://www.w3.org/2000/svg"
 width="96.000000pt" height="96.000000pt" viewBox="0 0 96.000000 96.000000"
 preserveAspectRatio="xMidYMid meet">
<metadata>
Created by potrace 1.11, written by Peter Selinger 2001-2013
</metadata>
<g transform="translate(0.000000,96.000000) scale(0.100000,-0.100000)"
fill="#000000" stroke="none">
<path d="M504 855 c-4 -15 -16 -28 -30 -31 -13 -3 -28 -12 -34 -19 -5 -7 -21
-10 -34 -8 -33 7 -62 -33 -42 -56 21 -24 23 -96 4 -118 -16 -17 -15 -20 1 -42
12 -16 25 -22 38 -19 11 3 31 -3 44 -13 13 -10 29 -19 35 -19 7 0 15 -11 18
-25 9 -36 63 -36 72 0 3 14 11 25 16 25 5 0 22 8 36 19 18 12 34 16 47 11 15
-5 24 -1 37 19 16 24 16 27 1 44 -20 22 -19 94 3 118 12 13 11 18 -2 38 -10
14 -24 21 -38 19 -11 -1 -32 5 -46 15 -13 9 -30 17 -36 17 -7 0 -15 11 -18 25
-5 20 -13 25 -36 25 -23 0 -31 -5 -36 -25z m99 -126 c34 -42 11 -112 -42 -124
-64 -14 -112 35 -95 97 17 59 97 74 137 27z"/>
<path d="M224 575 c-3 -14 -11 -25 -16 -25 -5 0 -22 -8 -36 -19 -18 -12 -34
-16 -47 -11 -29 10 -61 -37 -40 -60 21 -23 22 -95 2 -117 -15 -18 -15 -21 -1
-42 10 -14 24 -21 38 -19 12 1 34 -5 49 -15 14 -9 30 -17 36 -17 5 0 12 -11
15 -25 5 -20 13 -25 36 -25 23 0 31 5 36 25 3 14 11 25 16 25 5 0 22 8 36 19
18 12 34 16 47 11 29 -10 61 37 40 60 -21 23 -22 95 -2 117 15 17 15 20 -1 44
-13 20 -22 24 -37 19 -13 -5 -28 -1 -44 11 -13 11 -29 19 -36 19 -7 0 -16 11
-19 25 -5 20 -13 25 -36 25 -23 0 -31 -5 -36 -25z m92 -116 c20 -17 27 -66 12
-96 -17 -36 -65 -50 -104 -32 -55 27 -54 117 1 140 23 10 72 4 91 -12z"/>
<path d="M644 495 c-3 -14 -12 -25 -19 -25 -7 0 -28 -11 -47 -24 -24 -16 -40
-21 -51 -15 -11 7 -20 3 -31 -13 -19 -26 -20 -45 -5 -50 7 -2 11 -30 11 -68 0
-38 -4 -66 -11 -68 -15 -5 -14 -24 5 -50 11 -16 20 -20 31 -13 11 6 27 1 51
-15 19 -13 40 -24 47 -24 7 0 16 -12 19 -26 6 -21 11 -25 39 -22 24 2 33 8 35
25 2 13 9 23 16 23 7 0 29 11 48 24 24 16 40 21 51 15 11 -7 20 -3 31 13 19
27 20 47 3 53 -16 7 -13 110 3 130 10 12 10 21 0 44 -10 24 -16 28 -33 22 -15
-6 -31 -1 -55 16 -19 12 -40 23 -47 23 -7 0 -16 11 -19 25 -5 20 -13 25 -36
25 -23 0 -31 -5 -36 -25z m86 -112 c49 -29 63 -83 33 -133 -38 -66 -128 -66
-166 0 -21 36 -21 64 0 100 29 50 83 63 133 33z"/>
</g>
</svg>
