<svg xmlns="http://www.w3.org/2000/svg" viewBox="0 0 512 512"><defs><style>.cls-1{fill:#2196f3;}.cls-2{fill:#3f51b5;}.cls-3{fill:#673ab7;}.cls-4{fill:none;}</style></defs><title>Ресурс 2</title><g id="Слой_2" data-name="Слой 2"><g id="Круги"><path class="cls-1" d="M140,216a84,84,0,1,0,84,84A84,84,0,0,0,140,216Zm0,128a44,44,0,1,1,44-44A44,44,0,0,1,140,344Z"/><path class="cls-2" d="M284,64a84,84,0,1,0,84,84A84,84,0,0,0,284,64Zm0,128a44,44,0,1,1,44-44A44,44,0,0,1,284,192Z"/><path class="cls-3" d="M360,256a96,96,0,1,0,96,96A96,96,0,0,0,360,256Zm0,152a56,56,0,1,1,56-56A56,56,0,0,1,360,408Z"/></g><g id="Слой_6" data-name="Слой 6"><rect class="cls-4" width="512" height="512"/></g><g id="Центры_копия_" data-name="Центры (копия)"><path class="cls-1" d="M243.53,263.32l-20-34.64-56,23.62L160,192H120l-7.54,60.3-56-23.62-20,34.64L84.92,300,36.47,336.68l20,34.64,56-23.62L120,408h40l7.54-60.3,56,23.62,20-34.64L195.08,300ZM140,344a44,44,0,1,1,44-44A44,44,0,0,1,140,344Z"/><path class="cls-2" d="M387.53,111.32l-20-34.64-56,23.62L304,40H264l-7.54,60.3-56-23.62-20,34.64L228.92,148l-48.45,36.68,20,34.64,56-23.62L264,256h40l7.54-60.3,56,23.62,20-34.64L339.08,148ZM284,192a44,44,0,1,1,44-44A44,44,0,0,1,284,192Z"/><path class="cls-3" d="M424,352l.5-.29,51.42-38.93-24-41.56L392.5,296.29l-.5.28V296l-8-64H336l-8,64v.57l-.5-.28-59.42-25.07-24,41.56,51.42,38.93.5.29-.5.29-51.42,38.93,24,41.56,59.42-25.07.5-.28V408l8,64h48l8-64v-.57l.5.28,59.42,25.07,24-41.56L424.5,352.29Zm-64,56a56,56,0,1,1,56-56A56,56,0,0,1,360,408Z"/></g></g></svg>