<svg xmlns="http://www.w3.org/2000/svg" xmlns:xlink="http://www.w3.org/1999/xlink" viewBox="0 0 16 16" fill="#55636F">
  <path d="M7.5 1C3.914063 1 1 3.914063 1 7.5C1 8.796875 1.417969 9.984375 2.070313 11L0.953125 14.121094L4.429688 13.140625C5.351563 13.644531 6.375 14 7.5 14C11.085938 14 14 11.085938 14 7.5C14 3.914063 11.085938 1 7.5 1 Z M 7.5 2C10.542969 2 13 4.457031 13 7.5C13 10.542969 10.542969 13 7.5 13C6.457031 13 5.492188 12.707031 4.65625 12.203125L4.472656 12.089844L2.546875 12.628906L3.171875 10.894531L3.019531 10.683594C2.378906 9.78125 2 8.6875 2 7.5C2 4.457031 4.457031 2 7.5 2 Z M 5.0625 4C4.949219 4 4.761719 4.046875 4.601563 4.234375C4.445313 4.417969 4 4.867188 4 5.78125C4 6.691406 4.617188 7.574219 4.703125 7.699219C4.789063 7.824219 5.917969 9.695313 7.644531 10.5C8.054688 10.691406 8.375 10.804688 8.625 10.890625C9.039063 11.03125 9.414063 11.011719 9.710938 10.964844C10.042969 10.910156 10.730469 10.515625 10.875 10.082031C11.015625 9.648438 11.019531 9.277344 10.972656 9.199219C10.933594 9.121094 10.816406 9.074219 10.644531 8.984375C10.472656 8.890625 9.625 8.441406 9.46875 8.382813C9.3125 8.316406 9.195313 8.289063 9.078125 8.472656C8.964844 8.660156 8.636719 9.078125 8.535156 9.199219C8.433594 9.324219 8.335938 9.339844 8.164063 9.246094C7.988281 9.152344 7.433594 8.957031 6.777344 8.324219C6.265625 7.832031 5.917969 7.226563 5.820313 7.039063C5.71875 6.851563 5.808594 6.753906 5.894531 6.664063C5.972656 6.578125 6.066406 6.445313 6.152344 6.335938C6.238281 6.230469 6.265625 6.148438 6.324219 6.027344C6.382813 5.902344 6.355469 5.792969 6.3125 5.703125C6.265625 5.609375 5.921875 4.695313 5.78125 4.324219C5.640625 3.964844 5.496094 4.011719 5.390625 4.007813C5.292969 4 5.175781 4 5.0625 4Z" fill="#55636F" />
</svg>